<?xml version="1.0" encoding="iso-8859-1"?>
<!-- Generator: Adobe Illustrator 18.1.1, SVG Export Plug-In . SVG Version: 6.00 Build 0)  -->
<svg xmlns="http://www.w3.org/2000/svg" xmlns:xlink="http://www.w3.org/1999/xlink" version="1.1" id="Capa_1" x="0px" y="0px" viewBox="0 0 31.004 31.004" style="enable-background:new 0 0 31.004 31.004;" xml:space="preserve" width="512px" height="512px">
<g>
	<path d="M22.399,31.004V26.49c0-0.938,0.758-1.699,1.697-1.699l3.498-0.1L22.399,31.004z" fill="#006DF0"/>
	<path d="M25.898,0H5.109C4.168,0,3.41,0.76,3.41,1.695v27.611c0,0.938,0.759,1.697,1.699,1.697h15.602v-6.02   c0-0.936,0.762-1.697,1.699-1.697h5.185V1.695C27.594,0.76,26.837,0,25.898,0z M24.757,14.51c0,0.266-0.293,0.484-0.656,0.484   H6.566c-0.363,0-0.658-0.219-0.658-0.484v-0.807c0-0.268,0.295-0.484,0.658-0.484h17.535c0.363,0,0.656,0.217,0.656,0.484   L24.757,14.51L24.757,14.51z M24.757,17.988c0,0.27-0.293,0.484-0.656,0.484H6.566c-0.363,0-0.658-0.215-0.658-0.484v-0.805   c0-0.268,0.295-0.486,0.658-0.486h17.535c0.363,0,0.656,0.219,0.656,0.486L24.757,17.988L24.757,17.988z M24.757,21.539   c0,0.268-0.293,0.484-0.656,0.484H6.566c-0.363,0-0.658-0.217-0.658-0.484v-0.807c0-0.268,0.295-0.486,0.658-0.486h17.535   c0.363,0,0.656,0.219,0.656,0.486L24.757,21.539L24.757,21.539z M15.84,25.055c0,0.266-0.155,0.48-0.347,0.48H6.255   c-0.192,0-0.348-0.215-0.348-0.48v-0.809c0-0.266,0.155-0.484,0.348-0.484h9.238c0.191,0,0.347,0.219,0.347,0.484V25.055z    M12.364,11.391L10.68,5.416l-1.906,5.975H8.087c0,0-2.551-7.621-2.759-7.902C5.194,3.295,4.99,3.158,4.719,3.076V2.742h3.783   v0.334c-0.257,0-0.434,0.041-0.529,0.125s-0.144,0.18-0.144,0.287c0,0.102,1.354,4.193,1.354,4.193l1.058-3.279   c0,0-0.379-0.947-0.499-1.072C9.621,3.209,9.434,3.123,9.182,3.076V2.742h3.84v0.334c-0.301,0.018-0.489,0.065-0.569,0.137   c-0.08,0.076-0.12,0.182-0.12,0.32c0,0.131,1.291,4.148,1.291,4.148s1.171-3.74,1.171-3.896c0-0.234-0.051-0.404-0.153-0.514   c-0.101-0.107-0.299-0.172-0.592-0.195V2.742h2.22v0.334c-0.245,0.035-0.442,0.133-0.585,0.291   c-0.146,0.158-2.662,8.023-2.662,8.023h-0.66V11.391z M24.933,4.67c0,0.266-0.131,0.482-0.293,0.482h-7.79   c-0.162,0-0.293-0.217-0.293-0.482V3.861c0-0.266,0.131-0.482,0.293-0.482h7.79c0.162,0,0.293,0.217,0.293,0.482V4.67z    M24.997,10.662c0,0.268-0.131,0.48-0.292,0.48h-7.791c-0.164,0-0.293-0.213-0.293-0.48V9.854c0-0.266,0.129-0.484,0.293-0.484   h7.791c0.161,0,0.292,0.219,0.292,0.484V10.662z M24.965,7.676c0,0.268-0.129,0.482-0.293,0.482h-7.79   c-0.162,0-0.293-0.215-0.293-0.482V6.869c0-0.268,0.131-0.484,0.293-0.484h7.79c0.164,0,0.293,0.217,0.293,0.484V7.676z" fill="#006DF0"/>
</g>
<g>
</g>
<g>
</g>
<g>
</g>
<g>
</g>
<g>
</g>
<g>
</g>
<g>
</g>
<g>
</g>
<g>
</g>
<g>
</g>
<g>
</g>
<g>
</g>
<g>
</g>
<g>
</g>
<g>
</g>
</svg>
